<svg xmlns="http://www.w3.org/2000/svg" width="300" height="300" viewBox="0 0 300 300">
  <g fill="none" fill-rule="evenodd">
    <rect width="300" height="300" fill="#FFF"/>
    <path stroke="#979797" d="M103.090232,150.678869 C115.610945,162.061923 132.245235,169 150.5,169 C168.674292,169 185.242365,162.122958 197.743944,150.829149"/>
    <path stroke="#9B9B9B" d="M198.096814,150.508208 C212.173058,137.618875 221,119.090259 221,98.5 C221,59.5639251 189.436075,28 150.5,28 C111.563925,28 80,59.5639251 80,98.5 C80,119.11127 88.8449657,137.656687 102.946294,150.547648"/>
    <path stroke="#1E9618" stroke-width="3" d="M103.441812,150.003635 C89.0524813,162.911015 80,181.648347 80,202.5 C80,241.436075 111.563925,273 150.5,273 C189.436075,273 221,241.436075 221,202.5 C221,181.833611 212.107664,163.244139 197.940463,150.349053"/>
    <path stroke="#1E9618" stroke-width="3" d="M198.41625,150.786096 C185.839356,139.127293 169.002012,132 150.5,132 C132.109544,132 115.363743,139.041605 102.811707,150.575705"/>
    <circle cx="103" cy="151" r="3" fill="#1E9618" stroke="#1E9618"/>
    <circle cx="198" cy="151" r="3" fill="#1E9618" stroke="#1E9618"/>
  </g>
</svg>
