<svg xmlns="http://www.w3.org/2000/svg" xmlns:xlink="http://www.w3.org/1999/xlink" width="360" height="360" viewBox="0 0 360 360">
    <defs>
        <path id="a" d="M207 195.77s-18.272 33.104-96.764 52.742C31.742 268.151 0 247.56 0 247.56L47.891 0 207 195.77z"/>
    </defs>
    <g fill="none" fill-rule="evenodd">
        <path fill="#C00" d="M309.882 274.987c-41.415 71.732-133.137 96.31-204.87 54.895-71.731-41.415-96.308-133.137-54.895-204.87 41.415-71.731 133.139-96.308 204.87-54.894 71.732 41.415 96.31 133.137 54.895 204.87"/>
        <g transform="translate(98 59)">
            <mask id="b" fill="#fff">
                <use xlink:href="#a"/>
            </mask>
            <use fill="#F9CD0B" xlink:href="#a"/>
            <path fill="#F4A41E" fill-rule="nonzero" d="M208.722 154L234 186.98 17.278 352-8 319.02 208.722 154zm-19-77L215 109.98-1.722 275-27 242.02 189.722 77zm-20-77L195 32.98-21.722 198-47 165.02 169.722 0zm-19-77L176-44.02-40.722 121-66 88.02 150.722-77z" mask="url(#b)"/>
        </g>
        <path fill="#5AC0EC" d="M164.688 7L150.51 50.794l40.425-27.413L195 45.748l-40.039 11.857 39.603 9.844L184.137 83l-36.775-17.413L123.147 98l-16.556-8.737 30.36-27.207-40.987 8.393L89 48.94 137.671 54l-33.203-31.73L126.4 13l17.924 42.93-1.457-6.175L141 9.103 164.688 7z"/>
        <path fill="#FACE0B" d="M314.294 177.814l-8.607-5.032a1.402 1.402 0 0 1-.502-1.903l16.64-29.182a1.366 1.366 0 0 1 1.88-.51l8.607 5.031c.659.385.883 1.236.503 1.904l-16.641 29.18a1.367 1.367 0 0 1-1.88.512"/>
        <path fill="#5AC0EC" d="M314.554 78.203l-5.827 3.65a.954.954 0 0 1-1.314-.297l-12.267-19.449a.948.948 0 0 1 .3-1.31l5.827-3.652a.956.956 0 0 1 1.314.3l12.267 19.449a.949.949 0 0 1-.3 1.31M7.579 153.795l-5.23-4.242a.958.958 0 0 1-.148-1.327l13.92-17.87a.913.913 0 0 1 1.3-.151l5.23 4.242c.4.324.466.919.147 1.326l-13.92 17.87a.912.912 0 0 1-1.3.152"/>
        <path fill="#FACE0B" d="M77.237 118.344l-8.97 4.507a1.402 1.402 0 0 1-1.873-.606L51.15 92.51a1.374 1.374 0 0 1 .612-1.855l8.97-4.505a1.4 1.4 0 0 1 1.872.607l15.243 29.735a1.37 1.37 0 0 1-.611 1.853"/>
        <path fill="#EE6EA8" d="M272.523 126.469l-6.938 5.284a1.204 1.204 0 0 1-1.69-.231l-17.65-23.296a1.212 1.212 0 0 1 .232-1.695l6.937-5.284a1.203 1.203 0 0 1 1.691.231l17.65 23.295c.402.534.299 1.293-.232 1.696M70.209 210.808l-8.532-5.09a1.41 1.41 0 0 1-.489-1.91l16.73-29.117a1.356 1.356 0 0 1 1.873-.5l8.531 5.092a1.41 1.41 0 0 1 .49 1.91l-16.73 29.116a1.354 1.354 0 0 1-1.873.5"/>
    </g>
</svg>
